<?xml version="1.0" standalone="no"?>
<!DOCTYPE svg PUBLIC "-//W3C//DTD SVG 20010904//EN"
 "http://www.w3.org/TR/2001/REC-SVG-20010904/DTD/svg10.dtd">
<svg version="1.0" xmlns="http://www.w3.org/2000/svg"
 width="600.000000pt" height="600.000000pt" viewBox="0 0 600.000000 600.000000"
 preserveAspectRatio="xMidYMid meet">
<metadata>
Created by potrace 1.11, written by Peter Selinger 2001-2013
</metadata>
<g transform="translate(0.000000,600.000000) scale(0.100000,-0.100000)"
fill="#000000" stroke="none">
<path d="M2725 4954 c-102 -18 -218 -48 -317 -80 l-78 -26 0 -1919 0 -1919
268 2 267 3 3 1978 2 1977 -32 -1 c-18 0 -69 -7 -113 -15z"/>
<path d="M3310 2985 l0 -1975 263 2 262 3 3 1886 2 1886 -77 36 c-124 58 -285
109 -415 131 l-38 7 0 -1976z"/>
<path d="M1790 4549 c-166 -128 -296 -270 -396 -431 l-44 -72 0 -1512 0 -1512
23 -6 c12 -3 131 -6 265 -6 185 0 244 3 247 13 3 6 4 819 3 1806 l-3 1793 -95
-73z"/>
<path d="M4280 2732 l0 -1722 268 2 267 3 3 1258 2 1257 -46 118 c-118 299
-269 551 -459 767 l-35 40 0 -1723z"/>
<path d="M790 3807 c-226 -125 -384 -264 -522 -458 -111 -156 -207 -387 -244
-589 -25 -132 -25 -410 0 -535 61 -308 190 -552 405 -765 64 -64 151 -139 193
-168 69 -47 262 -152 281 -152 4 0 7 612 7 1360 0 1081 -3 1360 -13 1360 -6 0
-55 -24 -107 -53z"/>
<path d="M5260 2254 c0 -1049 1 -1106 18 -1100 9 4 51 28 94 53 356 214 559
508 609 881 27 198 -9 471 -84 654 -104 251 -294 450 -553 582 -39 20 -74 36
-78 36 -3 0 -6 -498 -6 -1106z"/>
</g>
</svg>
